<svg width="1574" height="1474" viewBox="0 0 1574 1474" fill="none" xmlns="http://www.w3.org/2000/svg">
  <defs>
    <!-- Business Grid Pattern -->
    <pattern id="business-grid" x="0" y="0" width="120" height="120" patternUnits="userSpaceOnUse">
      <rect width="120" height="120" fill="none" stroke="rgba(255, 215, 0, 0.08)" stroke-width="1"/>
      <rect x="10" y="10" width="100" height="100" fill="none" stroke="rgba(255, 215, 0, 0.12)" stroke-width="0.5"/>
      
      <!-- Business Icons -->
      <g transform="translate(60, 60)">
        <!-- Building icon -->
        <rect x="-15" y="-20" width="30" height="40" fill="none" stroke="rgba(255, 215, 0, 0.15)" stroke-width="1"/>
        <rect x="-12" y="-17" width="4" height="4" fill="rgba(255, 215, 0, 0.2)"/>
        <rect x="-5" y="-17" width="4" height="4" fill="rgba(255, 215, 0, 0.2)"/>
        <rect x="2" y="-17" width="4" height="4" fill="rgba(255, 215, 0, 0.2)"/>
        <rect x="9" y="-17" width="4" height="4" fill="rgba(255, 215, 0, 0.2)"/>
        
        <rect x="-12" y="-10" width="4" height="4" fill="rgba(255, 215, 0, 0.2)"/>
        <rect x="-5" y="-10" width="4" height="4" fill="rgba(255, 215, 0, 0.2)"/>
        <rect x="2" y="-10" width="4" height="4" fill="rgba(255, 215, 0, 0.2)"/>
        <rect x="9" y="-10" width="4" height="4" fill="rgba(255, 215, 0, 0.2)"/>
        
        <rect x="-12" y="-3" width="4" height="4" fill="rgba(255, 215, 0, 0.2)"/>
        <rect x="-5" y="-3" width="4" height="4" fill="rgba(255, 215, 0, 0.2)"/>
        <rect x="2" y="-3" width="4" height="4" fill="rgba(255, 215, 0, 0.2)"/>
        <rect x="9" y="-3" width="4" height="4" fill="rgba(255, 215, 0, 0.2)"/>
      </g>
      
      <!-- Connection lines -->
      <line x1="60" y1="0" x2="60" y2="30" stroke="rgba(255, 215, 0, 0.1)" stroke-width="0.5"/>
      <line x1="60" y1="90" x2="60" y2="120" stroke="rgba(255, 215, 0, 0.1)" stroke-width="0.5"/>
      <line x1="0" y1="60" x2="30" y2="60" stroke="rgba(255, 215, 0, 0.1)" stroke-width="0.5"/>
      <line x1="90" y1="60" x2="120" y2="60" stroke="rgba(255, 215, 0, 0.1)" stroke-width="0.5"/>
    </pattern>
    
    <!-- Business Glow -->
    <radialGradient id="business-glow" cx="50%" cy="50%" r="60%">
      <stop offset="0%" stop-color="rgba(255, 215, 0, 0.25)" />
      <stop offset="40%" stop-color="rgba(255, 215, 0, 0.15)" />
      <stop offset="100%" stop-color="transparent" />
    </radialGradient>
  </defs>
  
  <!-- Base pattern -->
  <rect width="100%" height="100%" fill="url(#business-grid)" />
  
  <!-- Overlay glow -->
  <rect width="100%" height="100%" fill="url(#business-glow)" />
  
  <!-- Strategic connection lines -->
  <g stroke="rgba(255, 215, 0, 0.1)" stroke-width="1" fill="none">
    <path d="M100 100 Q400 200 800 150 T1400 300"/>
    <path d="M200 300 Q500 400 900 350 T1300 500"/>
    <path d="M150 600 Q450 700 850 650 T1250 800"/>
    <path d="M300 900 Q600 1000 1000 950 T1400 1100"/>
  </g>
  
  <!-- Business nodes -->
  <g fill="rgba(255, 215, 0, 0.3)">
    <circle cx="200" cy="200" r="3"/>
    <circle cx="500" cy="350" r="3"/>
    <circle cx="800" cy="500" r="3"/>
    <circle cx="1100" cy="300" r="3"/>
    <circle cx="1300" cy="700" r="3"/>
    <circle cx="400" cy="800" r="3"/>
    <circle cx="700" cy="1000" r="3"/>
    <circle cx="1000" cy="1200" r="3"/>
  </g>
</svg>
