<svg width="1574" height="1474" viewBox="0 0 1574 1474" fill="none" xmlns="http://www.w3.org/2000/svg">
  <defs>
    <!-- Digital Tech Pattern -->
    <pattern id="digital-tech" x="0" y="0" width="100" height="100" patternUnits="userSpaceOnUse">
      <rect width="100" height="100" fill="none"/>
      
      <!-- Circuit board style -->
      <g stroke="rgba(255, 215, 0, 0.12)" stroke-width="1" fill="none">
        <rect x="20" y="20" width="60" height="60"/>
        <line x1="20" y1="50" x2="80" y2="50"/>
        <line x1="50" y1="20" x2="50" y2="80"/>
        
        <!-- Digital nodes -->
        <circle cx="35" cy="35" r="2" fill="rgba(255, 215, 0, 0.25)"/>
        <circle cx="65" cy="35" r="2" fill="rgba(255, 215, 0, 0.25)"/>
        <circle cx="35" cy="65" r="2" fill="rgba(255, 215, 0, 0.25)"/>
        <circle cx="65" cy="65" r="2" fill="rgba(255, 215, 0, 0.25)"/>
        
        <!-- Connection paths -->
        <path d="M35 35 L65 35 M35 35 L35 65 M65 35 L65 65 M35 65 L65 65" stroke="rgba(255, 215, 0, 0.08)" stroke-width="0.5"/>
      </g>
      
      <!-- Digital indicators -->
      <g fill="rgba(255, 215, 0, 0.15)">
        <rect x="40" y="10" width="2" height="6"/>
        <rect x="45" y="10" width="2" height="6"/>
        <rect x="50" y="10" width="2" height="6"/>
        <rect x="55" y="10" width="2" height="6"/>
        
        <rect x="40" y="84" width="2" height="6"/>
        <rect x="45" y="84" width="2" height="6"/>
        <rect x="50" y="84" width="2" height="6"/>
        <rect x="55" y="84" width="2" height="6"/>
      </g>
    </pattern>
    
    <!-- Digital Glow -->
    <linearGradient id="digital-glow" x1="0%" y1="0%" x2="100%" y2="100%">
      <stop offset="0%" stop-color="rgba(255, 215, 0, 0.2)" />
      <stop offset="50%" stop-color="rgba(255, 215, 0, 0.1)" />
      <stop offset="100%" stop-color="transparent" />
    </linearGradient>
    
    <!-- Data flow gradient -->
    <linearGradient id="data-flow" x1="0%" y1="0%" x2="100%" y2="0%">
      <stop offset="0%" stop-color="transparent" />
      <stop offset="20%" stop-color="rgba(255, 215, 0, 0.3)" />
      <stop offset="50%" stop-color="rgba(255, 215, 0, 0.6)" />
      <stop offset="80%" stop-color="rgba(255, 215, 0, 0.3)" />
      <stop offset="100%" stop-color="transparent" />
    </linearGradient>
  </defs>
  
  <!-- Base digital pattern -->
  <rect width="100%" height="100%" fill="url(#digital-tech)" />
  
  <!-- Digital glow overlay -->
  <rect width="100%" height="100%" fill="url(#digital-glow)" />
  
  <!-- Data flow lines -->
  <g stroke="url(#data-flow)" stroke-width="2" fill="none">
    <path d="M0 200 Q400 150 800 200 T1574 250">
      <animate attributeName="stroke-dasharray" values="0 100;50 50;100 0;0 100" dur="4s" repeatCount="indefinite"/>
    </path>
    <path d="M0 400 Q400 350 800 400 T1574 450">
      <animate attributeName="stroke-dasharray" values="100 0;50 50;0 100;100 0" dur="4s" repeatCount="indefinite"/>
    </path>
    <path d="M0 600 Q400 550 800 600 T1574 650">
      <animate attributeName="stroke-dasharray" values="0 100;50 50;100 0;0 100" dur="4s" repeatCount="indefinite"/>
    </path>
    <path d="M0 800 Q400 750 800 800 T1574 850">
      <animate attributeName="stroke-dasharray" values="100 0;50 50;0 100;100 0" dur="4s" repeatCount="indefinite"/>
    </path>
    <path d="M0 1000 Q400 950 800 1000 T1574 1050">
      <animate attributeName="stroke-dasharray" values="0 100;50 50;100 0;0 100" dur="4s" repeatCount="indefinite"/>
    </path>
  </g>
  
  <!-- Digital transformation nodes -->
  <g>
    <!-- Pakistan digital hubs -->
    <circle cx="300" cy="300" r="4" fill="rgba(255, 215, 0, 0.4)">
      <animate attributeName="r" values="4;6;4" dur="2s" repeatCount="indefinite"/>
      <animate attributeName="opacity" values="0.4;0.8;0.4" dur="2s" repeatCount="indefinite"/>
    </circle>
    <circle cx="600" cy="500" r="4" fill="rgba(255, 215, 0, 0.4)">
      <animate attributeName="r" values="4;6;4" dur="2s" repeatCount="indefinite" begin="0.5s"/>
      <animate attributeName="opacity" values="0.4;0.8;0.4" dur="2s" repeatCount="indefinite" begin="0.5s"/>
    </circle>
    <circle cx="1000" cy="400" r="4" fill="rgba(255, 215, 0, 0.4)">
      <animate attributeName="r" values="4;6;4" dur="2s" repeatCount="indefinite" begin="1s"/>
      <animate attributeName="opacity" values="0.4;0.8;0.4" dur="2s" repeatCount="indefinite" begin="1s"/>
    </circle>
    <circle cx="1200" cy="700" r="4" fill="rgba(255, 215, 0, 0.4)">
      <animate attributeName="r" values="4;6;4" dur="2s" repeatCount="indefinite" begin="1.5s"/>
      <animate attributeName="opacity" values="0.4;0.8;0.4" dur="2s" repeatCount="indefinite" begin="1.5s"/>
    </circle>
  </g>
  
  <!-- Business connectivity mesh -->
  <g stroke="rgba(255, 215, 0, 0.08)" stroke-width="0.5" fill="none">
    <path d="M300 300 L600 500 L1000 400 L1200 700"/>
    <path d="M300 300 L1000 400"/>
    <path d="M600 500 L1200 700"/>
    <path d="M300 300 L1200 700"/>
  </g>
</svg>
