<svg width="1574" height="1474" viewBox="0 0 1574 1474" fill="none" xmlns="http://www.w3.org/2000/svg">
  <defs>
    <!-- Advanced Quantum Technology Layer -->
    <pattern id="quantum-tech" x="0" y="0" width="200" height="200" patternUnits="userSpaceOnUse">
      <!-- Quantum Nodes -->
      <circle cx="50" cy="50" r="8" fill="rgba(255, 255, 255, 0.5)" stroke="rgba(255, 215, 0, 0.8)" stroke-width="2">
        <animate attributeName="r" values="8;12;8" dur="3s" repeatCount="indefinite"/>
        <animate attributeName="stroke-opacity" values="0.8;1;0.8" dur="3s" repeatCount="indefinite"/>
      </circle>
      <circle cx="150" cy="150" r="8" fill="rgba(255, 255, 255, 0.5)" stroke="rgba(255, 215, 0, 0.8)" stroke-width="2">
        <animate attributeName="r" values="8;12;8" dur="3s" repeatCount="indefinite" begin="1s"/>
        <animate attributeName="stroke-opacity" values="0.8;1;0.8" dur="3s" repeatCount="indefinite" begin="1s"/>
      </circle>
      
      <!-- Quantum Entanglement Lines -->
      <path d="M50,50 Q100,25 150,50 T250,75" stroke="rgba(255, 255, 255, 0.3)" stroke-width="2" fill="none">
        <animate attributeName="stroke-dasharray" values="0 300;150 150;300 0" dur="4s" repeatCount="indefinite"/>
      </path>
      <path d="M50,150 Q100,125 150,150 T250,175" stroke="rgba(255, 255, 255, 0.3)" stroke-width="2" fill="none">
        <animate attributeName="stroke-dasharray" values="300 0;150 150;0 300" dur="4s" repeatCount="indefinite"/>
      </path>
    </pattern>
    
    <!-- Advanced Neural Network -->
    <pattern id="neural-network" x="0" y="0" width="300" height="300" patternUnits="userSpaceOnUse">
      <!-- Neural Nodes -->
      <g>
        <circle cx="75" cy="75" r="6" fill="rgba(255, 215, 0, 0.6)">
          <animate attributeName="fill-opacity" values="0.6;1;0.6" dur="2s" repeatCount="indefinite"/>
        </circle>
        <circle cx="225" cy="75" r="6" fill="rgba(255, 215, 0, 0.6)">
          <animate attributeName="fill-opacity" values="0.6;1;0.6" dur="2s" repeatCount="indefinite" begin="0.5s"/>
        </circle>
        <circle cx="150" cy="150" r="8" fill="rgba(255, 215, 0, 0.8)">
          <animate attributeName="r" values="8;10;8" dur="2s" repeatCount="indefinite"/>
        </circle>
        <circle cx="75" cy="225" r="6" fill="rgba(255, 215, 0, 0.6)">
          <animate attributeName="fill-opacity" values="0.6;1;0.6" dur="2s" repeatCount="indefinite" begin="1s"/>
        </circle>
        <circle cx="225" cy="225" r="6" fill="rgba(255, 215, 0, 0.6)">
          <animate attributeName="fill-opacity" values="0.6;1;0.6" dur="2s" repeatCount="indefinite" begin="1.5s"/>
        </circle>
      </g>
      
      <!-- Neural Connections -->
      <g stroke="rgba(255, 255, 255, 0.2)" stroke-width="1.5" fill="none">
        <line x1="75" y1="75" x2="150" y2="150">
          <animate attributeName="stroke-opacity" values="0.2;0.8;0.2" dur="3s" repeatCount="indefinite"/>
        </line>
        <line x1="225" y1="75" x2="150" y2="150">
          <animate attributeName="stroke-opacity" values="0.2;0.8;0.2" dur="3s" repeatCount="indefinite" begin="0.5s"/>
        </line>
        <line x1="150" y1="150" x2="75" y2="225">
          <animate attributeName="stroke-opacity" values="0.2;0.8;0.2" dur="3s" repeatCount="indefinite" begin="1s"/>
        </line>
        <line x1="150" y1="150" x2="225" y2="225">
          <animate attributeName="stroke-opacity" values="0.2;0.8;0.2" dur="3s" repeatCount="indefinite" begin="1.5s"/>
        </line>
      </g>
    </pattern>
    
    <!-- Futuristic Circuit Board -->
    <pattern id="advanced-circuit" x="0" y="0" width="160" height="160" patternUnits="userSpaceOnUse">
      <!-- Main Circuit Paths -->
      <rect width="160" height="160" fill="none" stroke="rgba(255, 255, 255, 0.08)" stroke-width="1"/>
      
      <!-- Horizontal Traces -->
      <path d="M0 40L160 40M0 80L160 80M0 120L160 120" stroke="rgba(255, 215, 0, 0.15)" stroke-width="2"/>
      <!-- Vertical Traces -->
      <path d="M40 0L40 160M80 0L80 160M120 0L120 160" stroke="rgba(255, 215, 0, 0.15)" stroke-width="2"/>
      
      <!-- Circuit Junctions -->
      <g fill="rgba(255, 215, 0, 0.4)">
        <circle cx="40" cy="40" r="3">
          <animate attributeName="r" values="3;5;3" dur="4s" repeatCount="indefinite"/>
        </circle>
        <circle cx="80" cy="80" r="3">
          <animate attributeName="r" values="3;5;3" dur="4s" repeatCount="indefinite" begin="1s"/>
        </circle>
        <circle cx="120" cy="120" r="3">
          <animate attributeName="r" values="3;5;3" dur="4s" repeatCount="indefinite" begin="2s"/>
        </circle>
      </g>
      
      <!-- Digital Components -->
      <g fill="rgba(255, 255, 255, 0.3)">
        <rect x="35" y="15" width="10" height="8" rx="2"/>
        <rect x="75" y="55" width="10" height="8" rx="2"/>
        <rect x="115" y="95" width="10" height="8" rx="2"/>
      </g>
    </pattern>
    
    <!-- Premium Glow Effects -->
    <radialGradient id="digital-premium-glow" cx="50%" cy="50%" r="70%">
      <stop offset="0%" stop-color="rgba(255, 215, 0, 0.4)"/>
      <stop offset="40%" stop-color="rgba(255, 255, 255, 0.2)"/>
      <stop offset="80%" stop-color="rgba(255, 215, 0, 0.1)"/>
      <stop offset="100%" stop-color="transparent"/>
    </radialGradient>
    
    <linearGradient id="data-stream" x1="0%" y1="0%" x2="100%" y2="0%">
      <stop offset="0%" stop-color="transparent"/>
      <stop offset="20%" stop-color="rgba(255, 215, 0, 0.6)"/>
      <stop offset="50%" stop-color="rgba(255, 255, 255, 0.8)"/>
      <stop offset="80%" stop-color="rgba(255, 215, 0, 0.6)"/>
      <stop offset="100%" stop-color="transparent"/>
    </linearGradient>
  </defs>
  
  <!-- Base Premium Digital Patterns -->
  <rect width="100%" height="100%" fill="url(#quantum-tech)" opacity="0.7"/>
  <rect width="100%" height="100%" fill="url(#neural-network)" opacity="0.6"/>
  <rect width="100%" height="100%" fill="url(#advanced-circuit)" opacity="0.8"/>
  
  <!-- Dynamic Data Streams -->
  <g stroke="url(#data-stream)" stroke-width="3" fill="none">
    <path d="M0 150 Q400 100 800 150 T1574 200">
      <animate attributeName="stroke-dasharray" values="0 400;200 200;400 0;0 400" dur="6s" repeatCount="indefinite"/>
    </path>
    <path d="M0 350 Q400 300 800 350 T1574 400">
      <animate attributeName="stroke-dasharray" values="400 0;200 200;0 400;400 0" dur="6s" repeatCount="indefinite"/>
    </path>
    <path d="M0 550 Q400 500 800 550 T1574 600">
      <animate attributeName="stroke-dasharray" values="0 400;200 200;400 0;0 400" dur="6s" repeatCount="indefinite" begin="2s"/>
    </path>
    <path d="M0 750 Q400 700 800 750 T1574 800">
      <animate attributeName="stroke-dasharray" values="400 0;200 200;0 400;400 0" dur="6s" repeatCount="indefinite" begin="2s"/>
    </path>
    <path d="M0 950 Q400 900 800 950 T1574 1000">
      <animate attributeName="stroke-dasharray" values="0 400;200 200;400 0;0 400" dur="6s" repeatCount="indefinite" begin="4s"/>
    </path>
  </g>
  
  <!-- Premium Glow Zones -->
  <ellipse cx="400" cy="400" rx="250" ry="180" fill="url(#digital-premium-glow)" opacity="0.5">
    <animate attributeName="opacity" values="0.5;0.8;0.5" dur="8s" repeatCount="indefinite"/>
  </ellipse>
  <ellipse cx="1100" cy="600" rx="300" ry="200" fill="url(#digital-premium-glow)" opacity="0.4">
    <animate attributeName="opacity" values="0.4;0.7;0.4" dur="10s" repeatCount="indefinite"/>
  </ellipse>
  <ellipse cx="300" cy="1100" rx="200" ry="150" fill="url(#digital-premium-glow)" opacity="0.6">
    <animate attributeName="opacity" values="0.6;0.9;0.6" dur="7s" repeatCount="indefinite"/>
  </ellipse>
  
  <!-- Advanced Digital Hubs -->
  <g fill="rgba(255, 215, 0, 0.8)">
    <circle cx="350" cy="300" r="10">
      <animate attributeName="r" values="10;15;10" dur="4s" repeatCount="indefinite"/>
      <animate attributeName="fill-opacity" values="0.8;1;0.8" dur="4s" repeatCount="indefinite"/>
    </circle>
    <circle cx="800" cy="500" r="10">
      <animate attributeName="r" values="10;15;10" dur="4s" repeatCount="indefinite" begin="1s"/>
      <animate attributeName="fill-opacity" values="0.8;1;0.8" dur="4s" repeatCount="indefinite" begin="1s"/>
    </circle>
    <circle cx="1200" cy="400" r="10">
      <animate attributeName="r" values="10;15;10" dur="4s" repeatCount="indefinite" begin="2s"/>
      <animate attributeName="fill-opacity" values="0.8;1;0.8" dur="4s" repeatCount="indefinite" begin="2s"/>
    </circle>
    <circle cx="600" cy="800" r="10">
      <animate attributeName="r" values="10;15;10" dur="4s" repeatCount="indefinite" begin="3s"/>
      <animate attributeName="fill-opacity" values="0.8;1;0.8" dur="4s" repeatCount="indefinite" begin="3s"/>
    </circle>
    <circle cx="1000" cy="1000" r="10">
      <animate attributeName="r" values="10;15;10" dur="4s" repeatCount="indefinite" begin="0.5s"/>
      <animate attributeName="fill-opacity" values="0.8;1;0.8" dur="4s" repeatCount="indefinite" begin="0.5s"/>
    </circle>
  </g>
  
  <!-- Premium Network Mesh -->
  <g stroke="rgba(255, 255, 255, 0.12)" stroke-width="1.5" fill="none">
    <path d="M350 300 Q600 200 800 500 T1200 400">
      <animate attributeName="stroke-opacity" values="0.12;0.4;0.12" dur="6s" repeatCount="indefinite"/>
    </path>
    <path d="M800 500 Q900 600 1000 1000">
      <animate attributeName="stroke-opacity" values="0.12;0.4;0.12" dur="6s" repeatCount="indefinite" begin="2s"/>
    </path>
    <path d="M600 800 Q800 700 1200 400">
      <animate attributeName="stroke-opacity" values="0.12;0.4;0.12" dur="6s" repeatCount="indefinite" begin="4s"/>
    </path>
  </g>
</svg>

<svg width="1574" height="1474" viewBox="0 0 1574 1474" fill="none" xmlns="http://www.w3.org/2000/svg">
  <defs>
    <!-- Digital Tech Pattern -->
    <pattern id="digital-tech" x="0" y="0" width="100" height="100" patternUnits="userSpaceOnUse">
      <rect width="100" height="100" fill="none"/>
      
      <!-- Circuit board style -->
      <g stroke="rgba(255, 215, 0, 0.12)" stroke-width="1" fill="none">
        <rect x="20" y="20" width="60" height="60"/>
        <line x1="20" y1="50" x2="80" y2="50"/>
        <line x1="50" y1="20" x2="50" y2="80"/>
        
        <!-- Digital nodes -->
        <circle cx="35" cy="35" r="2" fill="rgba(255, 215, 0, 0.25)"/>
        <circle cx="65" cy="35" r="2" fill="rgba(255, 215, 0, 0.25)"/>
        <circle cx="35" cy="65" r="2" fill="rgba(255, 215, 0, 0.25)"/>
        <circle cx="65" cy="65" r="2" fill="rgba(255, 215, 0, 0.25)"/>
        
        <!-- Connection paths -->
        <path d="M35 35 L65 35 M35 35 L35 65 M65 35 L65 65 M35 65 L65 65" stroke="rgba(255, 215, 0, 0.08)" stroke-width="0.5"/>
      </g>
      
      <!-- Digital indicators -->
      <g fill="rgba(255, 215, 0, 0.15)">
        <rect x="40" y="10" width="2" height="6"/>
        <rect x="45" y="10" width="2" height="6"/>
        <rect x="50" y="10" width="2" height="6"/>
        <rect x="55" y="10" width="2" height="6"/>
        
        <rect x="40" y="84" width="2" height="6"/>
        <rect x="45" y="84" width="2" height="6"/>
        <rect x="50" y="84" width="2" height="6"/>
        <rect x="55" y="84" width="2" height="6"/>
      </g>
    </pattern>
    
    <!-- Digital Glow -->
    <linearGradient id="digital-glow" x1="0%" y1="0%" x2="100%" y2="100%">
      <stop offset="0%" stop-color="rgba(255, 215, 0, 0.2)" />
      <stop offset="50%" stop-color="rgba(255, 215, 0, 0.1)" />
      <stop offset="100%" stop-color="transparent" />
    </linearGradient>
    
    <!-- Data flow gradient -->
    <linearGradient id="data-flow" x1="0%" y1="0%" x2="100%" y2="0%">
      <stop offset="0%" stop-color="transparent" />
      <stop offset="20%" stop-color="rgba(255, 215, 0, 0.3)" />
      <stop offset="50%" stop-color="rgba(255, 215, 0, 0.6)" />
      <stop offset="80%" stop-color="rgba(255, 215, 0, 0.3)" />
      <stop offset="100%" stop-color="transparent" />
    </linearGradient>
  </defs>
  
  <!-- Base digital pattern -->
  <rect width="100%" height="100%" fill="url(#digital-tech)" />
  
  <!-- Digital glow overlay -->
  <rect width="100%" height="100%" fill="url(#digital-glow)" />
  
  <!-- Data flow lines -->
  <g stroke="url(#data-flow)" stroke-width="2" fill="none">
    <path d="M0 200 Q400 150 800 200 T1574 250">
      <animate attributeName="stroke-dasharray" values="0 100;50 50;100 0;0 100" dur="4s" repeatCount="indefinite"/>
    </path>
    <path d="M0 400 Q400 350 800 400 T1574 450">
      <animate attributeName="stroke-dasharray" values="100 0;50 50;0 100;100 0" dur="4s" repeatCount="indefinite"/>
    </path>
    <path d="M0 600 Q400 550 800 600 T1574 650">
      <animate attributeName="stroke-dasharray" values="0 100;50 50;100 0;0 100" dur="4s" repeatCount="indefinite"/>
    </path>
    <path d="M0 800 Q400 750 800 800 T1574 850">
      <animate attributeName="stroke-dasharray" values="100 0;50 50;0 100;100 0" dur="4s" repeatCount="indefinite"/>
    </path>
    <path d="M0 1000 Q400 950 800 1000 T1574 1050">
      <animate attributeName="stroke-dasharray" values="0 100;50 50;100 0;0 100" dur="4s" repeatCount="indefinite"/>
    </path>
  </g>
  
  <!-- Digital transformation nodes -->
  <g>
    <!-- Pakistan digital hubs -->
    <circle cx="300" cy="300" r="4" fill="rgba(255, 215, 0, 0.4)">
      <animate attributeName="r" values="4;6;4" dur="2s" repeatCount="indefinite"/>
      <animate attributeName="opacity" values="0.4;0.8;0.4" dur="2s" repeatCount="indefinite"/>
    </circle>
    <circle cx="600" cy="500" r="4" fill="rgba(255, 215, 0, 0.4)">
      <animate attributeName="r" values="4;6;4" dur="2s" repeatCount="indefinite" begin="0.5s"/>
      <animate attributeName="opacity" values="0.4;0.8;0.4" dur="2s" repeatCount="indefinite" begin="0.5s"/>
    </circle>
    <circle cx="1000" cy="400" r="4" fill="rgba(255, 215, 0, 0.4)">
      <animate attributeName="r" values="4;6;4" dur="2s" repeatCount="indefinite" begin="1s"/>
      <animate attributeName="opacity" values="0.4;0.8;0.4" dur="2s" repeatCount="indefinite" begin="1s"/>
    </circle>
    <circle cx="1200" cy="700" r="4" fill="rgba(255, 215, 0, 0.4)">
      <animate attributeName="r" values="4;6;4" dur="2s" repeatCount="indefinite" begin="1.5s"/>
      <animate attributeName="opacity" values="0.4;0.8;0.4" dur="2s" repeatCount="indefinite" begin="1.5s"/>
    </circle>
  </g>
  
  <!-- Business connectivity mesh -->
  <g stroke="rgba(255, 215, 0, 0.08)" stroke-width="0.5" fill="none">
    <path d="M300 300 L600 500 L1000 400 L1200 700"/>
    <path d="M300 300 L1000 400"/>
    <path d="M600 500 L1200 700"/>
    <path d="M300 300 L1200 700"/>
  </g>
</svg>
